<svg width="185" height="179" viewBox="0 0 185 179" fill="none" xmlns="http://www.w3.org/2000/svg">
<defs>
<radialGradient id="goldGradient" cx="0.3" cy="0.3" r="0.8">
<stop offset="0%" stop-color="#FFFF99"/>
<stop offset="30%" stop-color="#FFD700"/>
<stop offset="70%" stop-color="#DAA520"/>
<stop offset="100%" stop-color="#B8860B"/>
</radialGradient>
<filter id="shadow" x="-50%" y="-50%" width="200%" height="200%">
<feDropShadow dx="2" dy="4" stdDeviation="3" flood-opacity="0.3"/>
</filter>
<filter id="innerShadow" x="-50%" y="-50%" width="200%" height="200%">
<feOffset dx="0" dy="0"/>
<feGaussianBlur stdDeviation="2" result="offset-blur"/>
<feFlood flood-color="#000000" flood-opacity="0.2"/>
<feComposite in2="offset-blur" operator="in"/>
</filter>
</defs>
<path d="M92.8447 0.137695C114.476 0.137695 132.011 17.6731 132.012 39.3047C132.012 44.393 131.04 49.2557 129.274 53.7158C134.118 51.5715 139.477 50.3789 145.114 50.3789C166.745 50.3791 184.28 67.9152 184.28 89.5469C184.28 111.178 166.745 128.715 145.114 128.715C139.625 128.715 134.399 127.583 129.657 125.544C131.18 129.725 132.012 134.239 132.012 138.946C132.011 160.578 114.476 178.114 92.8447 178.114C71.2139 178.114 53.6782 160.578 53.6777 138.946C53.6778 134.155 54.5396 129.564 56.1143 125.32C51.2377 127.5 45.8344 128.715 40.1475 128.715C18.5166 128.715 0.980964 111.178 0.980469 89.5469C0.980469 67.9151 18.5163 50.3789 40.1475 50.3789C45.9894 50.379 51.532 51.6597 56.5117 53.9531C54.6858 49.4282 53.6778 44.4836 53.6777 39.3047C53.678 17.6731 71.2137 0.137739 92.8447 0.137695ZM69.9766 65.3037C69.2206 64.8027 68.3012 65.7126 68.8164 66.4639C77.5459 79.2602 77.6299 98.2251 69.4727 111.109L68.8643 111.974C68.3363 112.729 69.2531 113.664 70.0176 113.146C83.1231 104.219 101.796 104.434 115.206 112.862C115.224 112.872 115.263 112.903 115.267 112.905C116.023 113.463 116.972 112.562 116.461 111.777C107.816 98.4333 107.746 79.6336 116.649 66.5234C117.173 65.7543 116.251 64.8324 115.486 65.3604L114.042 66.3604C114.028 66.3745 113.999 66.3843 113.985 66.3984C108.794 69.5007 103.128 71.0254 97.1836 71.6572L97.1787 71.6523C88.4387 72.5837 79.9042 71.0506 72.1367 66.7461C72.1131 66.7319 72.0654 66.7031 72.0654 66.7031L69.9766 65.3037Z" fill="url(#goldGradient)" filter="url(#shadow)"/>

</svg>