<svg width="181" height="176" viewBox="0 0 181 176" fill="none" xmlns="http://www.w3.org/2000/svg">
<defs>
<radialGradient id="silverGradient" cx="0.3" cy="0.3" r="0.8">
<stop offset="0%" stop-color="#F5F5F5"/>
<stop offset="30%" stop-color="#C0C0C0"/>
<stop offset="70%" stop-color="#A9A9A9"/>
<stop offset="100%" stop-color="#696969"/>
</radialGradient>
<filter id="shadow" x="-50%" y="-50%" width="200%" height="200%">
<feDropShadow dx="2" dy="4" stdDeviation="3" flood-opacity="0.3"/>
</filter>
</defs>
<path d="M90.79 11.216C104.03 -3.55767 127.17 -3.55767 140.41 11.216C146.29 17.7708 154.52 21.7344 163.31 22.241C183.11 23.3827 197.54 41.473 194.24 61.0372C192.78 69.7175 194.82 78.6236 199.9 85.8101C211.35 102.007 206.21 124.566 188.86 134.188C181.16 138.458 175.46 145.6 173.01 154.055C167.49 173.111 146.65 183.15 128.31 175.585C120.17 172.228 111.03 172.228 102.9 175.585C84.55 183.15 63.71 173.111 58.19 154.055C55.74 145.6 50.04 138.458 42.34 134.188C24.99 124.566 19.85 102.007 31.3 85.8102C36.39 78.6236 38.42 69.7175 36.96 61.0372C33.66 41.473 48.09 23.3827 67.9 22.241C76.68 21.7344 84.91 17.7708 90.79 11.216Z" fill="url(#silverGradient)" filter="url(#shadow)"/>

</svg>