<svg width="182" height="188" viewBox="0 0 182 188" fill="none" xmlns="http://www.w3.org/2000/svg">
<defs>
<radialGradient id="greenGradient" cx="0.3" cy="0.3" r="0.8">
<stop offset="0%" stop-color="#90EE90"/>
<stop offset="30%" stop-color="#32CD32"/>
<stop offset="70%" stop-color="#228B22"/>
<stop offset="100%" stop-color="#006400"/>
</radialGradient>
<filter id="shadow" x="-50%" y="-50%" width="200%" height="200%">
<feDropShadow dx="2" dy="4" stdDeviation="3" flood-opacity="0.3"/>
</filter>
</defs>
<path d="M60.223 27.0655C74.577 -8.84082 125.884 -8.84086 140.238 27.0655C144.568 37.8966 153.332 46.4823 164.281 50.5098C200.203 63.7245 200.203 114.525 164.281 127.74C153.332 131.768 144.568 140.354 140.238 151.186C125.884 187.092 74.577 187.091 60.223 151.186C55.893 140.354 47.128 131.768 36.18 127.74C0.258 114.526 0.258 63.7245 36.18 50.5098C47.128 46.4822 55.893 37.8965 60.223 27.0655ZM100.23 56.2588C81.913 56.2588 67.064 71.1073 67.064 89.4239C67.064 107.741 81.913 122.59 100.23 122.59C118.547 122.59 133.395 107.741 133.395 89.4239C133.395 71.1074 118.546 56.2591 100.23 56.2588Z" fill="url(#greenGradient)" filter="url(#shadow)"/>

</svg>