<svg width="178" height="178" viewBox="0 0 178 178" fill="none" xmlns="http://www.w3.org/2000/svg">
<defs>
<radialGradient id="purpleGradient" cx="0.3" cy="0.3" r="0.8">
<stop offset="0%" stop-color="#DDA0DD"/>
<stop offset="30%" stop-color="#9370DB"/>
<stop offset="70%" stop-color="#8A2BE2"/>
<stop offset="100%" stop-color="#4B0082"/>
</radialGradient>
<filter id="shadow" x="-50%" y="-50%" width="200%" height="200%">
<feDropShadow dx="2" dy="4" stdDeviation="3" flood-opacity="0.3"/>
</filter>
</defs>
<path d="M89.014 0.135742C96.019 0.135742 101.698 5.81472 101.698 12.8203V31.9434C101.698 38.9489 107.378 44.6279 114.384 44.6279H133.506C140.511 44.6279 146.19 50.307 146.19 57.3125V120.938C146.19 127.943 140.511 133.623 133.506 133.623H114.384C107.378 133.623 101.698 139.302 101.698 146.308V165.431C101.698 172.436 96.019 178.115 89.014 178.115H25.39C18.384 178.115 12.705 172.436 12.705 165.431V146.308C12.705 139.302 7.025 133.623 0.02 133.623H-19.103C-26.108 133.623 -31.787 127.943 -31.787 120.938V57.3125C-31.787 50.307 -26.108 44.6279 -19.103 44.6279H0.02C7.025 44.6279 12.705 38.9489 12.705 31.9434V12.8203C12.705 5.81472 18.384 0.135742 25.39 0.135742H89.014ZM34.497 55.3467C28.492 55.3467 23.624 60.2149 23.624 66.2197V111.629C23.624 117.634 28.492 122.502 34.497 122.502H79.906C85.911 122.502 90.778 117.634 90.778 111.629V66.2197C90.778 60.2151 85.911 55.3469 79.906 55.3467H34.497Z" fill="url(#purpleGradient)" filter="url(#shadow)"/>

</svg>